<svg width="179" height="50" viewBox="0 0 179 50" fill="none" xmlns="http://www.w3.org/2000/svg">
<path d="M1.512 40V38.656L5.397 37.984L5.439 24.166L5.397 10.747L1.512 10.033V8.5H13.671V10.033L9.177 10.747L9.135 24.166L9.177 38.005L10.479 38.551H20.013L22.68 31.579H24.276L23.247 40H1.512ZM25.7093 40V38.908L28.8593 38.173L28.9013 29.437L28.7753 22.129L25.6043 21.457V20.197L31.2323 19.441H31.8833L32.5343 20.26L32.3873 29.437L32.4293 38.173L35.4113 38.908V40H25.7093ZM28.1033 12.259C28.1033 11.475 28.3133 10.88 28.7333 10.474C29.1533 10.054 29.7623 9.844 30.5603 9.844C31.3163 9.844 31.9183 10.068 32.3663 10.516C32.8143 10.95 33.0383 11.531 33.0383 12.259C33.0383 13.029 32.8213 13.624 32.3873 14.044C31.9673 14.464 31.3583 14.674 30.5603 14.674C29.8183 14.674 29.2233 14.45 28.7753 14.002C28.3273 13.554 28.1033 12.973 28.1033 12.259ZM37.593 40V33.238H39L40.533 37.585L38.79 40H37.593ZM38.265 24.334C38.265 22.822 38.776 21.569 39.798 20.575C40.834 19.567 42.332 19.063 44.292 19.063C45.622 19.063 46.707 19.287 47.547 19.735C48.387 20.183 49.059 20.729 49.563 21.373L48.933 22.423C48.471 21.891 47.82 21.422 46.98 21.016C46.154 20.596 45.279 20.386 44.355 20.386C43.207 20.386 42.339 20.645 41.751 21.163C41.163 21.667 40.869 22.332 40.869 23.158C40.869 24.068 41.233 24.824 41.961 25.426C42.689 26.014 44.061 26.651 46.077 27.337C48.079 28.009 49.668 28.842 50.844 29.836C52.02 30.816 52.608 32.272 52.608 34.204C52.608 35.996 51.964 37.48 50.676 38.656C49.402 39.832 47.771 40.42 45.783 40.42C44.061 40.42 42.661 40.077 41.583 39.391C40.519 38.691 39.609 37.837 38.853 36.829L40.071 35.989C40.407 36.745 41.079 37.438 42.087 38.068C43.095 38.684 44.222 38.992 45.468 38.992C46.784 38.992 47.841 38.649 48.639 37.963C49.437 37.277 49.836 36.374 49.836 35.254C49.836 34.064 49.36 33.147 48.408 32.503C47.456 31.845 45.937 31.152 43.851 30.424C41.751 29.668 40.295 28.842 39.483 27.946C38.671 27.036 38.265 25.832 38.265 24.334ZM48.219 21.835L49.689 19.504H50.907V25.72H49.5L48.219 21.835ZM54.1774 34.876C54.1774 33.168 55.1714 31.628 57.1594 30.256C59.1614 28.884 62.3324 27.771 66.6724 26.917L66.8404 27.988C64.0124 28.52 61.8214 29.325 60.2674 30.403C58.7274 31.467 57.9574 32.811 57.9574 34.435C57.9574 35.821 58.3144 36.836 59.0284 37.48C59.7564 38.11 60.6944 38.425 61.8424 38.425C63.0604 38.425 64.1524 38.047 65.1184 37.291C66.0984 36.535 66.6444 35.758 66.7564 34.96L67.2394 34.981C67.2394 36.241 66.5604 37.445 65.2024 38.593C63.8444 39.727 62.1994 40.294 60.2674 40.294C58.2934 40.294 56.7814 39.797 55.7314 38.803C54.6954 37.795 54.1774 36.486 54.1774 34.876ZM55.5214 22.024C55.8854 21.352 56.6414 20.694 57.7894 20.05C58.9514 19.392 60.4634 19.063 62.3254 19.063C64.5794 19.063 66.3784 19.721 67.7224 21.037C69.0664 22.339 69.7524 24.6 69.7804 27.82L69.8854 38.173L72.6994 38.908V40H67.6804L66.8824 39.097L66.3154 36.43L66.3574 27.82C66.3854 25.09 65.9724 23.235 65.1184 22.255C64.2644 21.275 63.0464 20.785 61.4644 20.785C60.2324 20.785 59.1964 20.974 58.3564 21.352C57.5164 21.716 56.8024 22.171 56.2144 22.717L55.5214 22.024ZM86.9367 40V30.445H88.4697L90.1287 36.535L88.3437 40H86.9367ZM87.5667 15.976C87.5667 13.722 88.2877 11.853 89.7297 10.369C91.1717 8.871 93.1737 8.122 95.7357 8.122C97.2897 8.122 98.7177 8.36 100.02 8.836C101.322 9.298 102.477 9.991 103.485 10.915L101.931 12.763C101.315 11.979 100.503 11.307 99.4947 10.747C98.4867 10.187 97.2477 9.907 95.7777 9.907C94.1117 9.907 92.8097 10.341 91.8717 11.209C90.9477 12.063 90.4857 13.204 90.4857 14.632C90.4857 16.158 91.0527 17.418 92.1867 18.412C93.3347 19.406 95.2457 20.491 97.9197 21.667C100.272 22.731 102.26 24.026 103.884 25.552C105.522 27.064 106.341 29.073 106.341 31.579C106.341 34.141 105.508 36.262 103.842 37.942C102.19 39.622 100.041 40.462 97.3947 40.462C95.0427 40.462 93.1247 40 91.6407 39.076C90.1567 38.152 88.8337 36.808 87.6717 35.044L89.7087 34.603C90.0867 35.779 90.9897 36.773 92.4177 37.585C93.8457 38.383 95.5327 38.782 97.4787 38.782C99.2847 38.782 100.706 38.236 101.742 37.144C102.792 36.038 103.317 34.652 103.317 32.986C103.317 30.984 102.631 29.402 101.259 28.24C99.8867 27.078 97.8777 25.965 95.2317 24.901C92.4597 23.781 90.4857 22.577 89.3097 21.289C88.1477 20.001 87.5667 18.23 87.5667 15.976ZM101.322 12.322L102.876 8.773H104.241V17.362H102.729L101.322 12.322ZM107.612 21.52V20.407C109.124 20.001 110.342 19.28 111.266 18.244C112.19 17.208 112.848 16.095 113.24 14.905H113.975L114.542 18.055L114.227 29.437L114.395 37.186L115.361 38.299H118.091V39.391L113.471 40.168C112.407 40.168 111.651 39.895 111.203 39.349C110.755 38.789 110.538 37.928 110.552 36.766L110.699 29.437V21.814L107.612 21.52ZM113.408 21.541L113.492 20.134H118.511V21.541H113.408ZM120.449 29.752C120.449 26.686 121.38 24.138 123.242 22.108C125.104 20.064 127.519 19.042 130.487 19.042C133.469 19.042 135.898 20.001 137.774 21.919C139.664 23.823 140.609 26.392 140.609 29.626C140.609 32.692 139.685 35.261 137.837 37.333C135.989 39.405 133.574 40.441 130.592 40.441C127.61 40.441 125.174 39.475 123.284 37.543C121.394 35.611 120.449 33.014 120.449 29.752ZM124.229 29.332C124.243 32.356 124.81 34.722 125.93 36.43C127.064 38.124 128.569 38.971 130.445 38.971C132.461 38.971 134.008 38.215 135.086 36.703C136.178 35.191 136.717 32.846 136.703 29.668C136.703 26.728 136.136 24.481 135.002 22.927C133.868 21.373 132.363 20.596 130.487 20.596C128.471 20.596 126.917 21.303 125.825 22.717C124.747 24.131 124.215 26.336 124.229 29.332ZM143.136 40V38.908L145.95 38.173L145.992 29.437L145.95 22.129L143.136 21.457V20.197L148.596 19.483L149.163 19.882L149.499 22.171L149.478 29.437L149.52 38.173L152.523 38.908V40H143.136ZM149.058 24.859L148.554 24.082C149.1 22.738 150.017 21.611 151.305 20.701C152.607 19.791 154.245 19.336 156.219 19.336L158.109 19.357V24.607H156.66L155.337 21.394C154.105 21.394 152.929 21.688 151.809 22.276C150.703 22.864 149.786 23.725 149.058 24.859ZM159.783 29.752C159.783 26.672 160.637 24.117 162.345 22.087C164.067 20.057 166.314 19.042 169.086 19.042C171.62 19.042 173.601 19.861 175.029 21.499C176.457 23.123 177.304 25.342 177.57 28.156H174.147C173.993 25.986 173.482 24.18 172.614 22.738C171.746 21.296 170.444 20.575 168.708 20.575C167.14 20.575 165.88 21.31 164.928 22.78C163.99 24.25 163.528 26.406 163.542 29.248C163.556 32.538 164.186 34.904 165.432 36.346C166.678 37.788 168.323 38.509 170.367 38.509C171.697 38.509 172.803 38.306 173.685 37.9C174.581 37.494 175.358 36.948 176.016 36.262L176.73 37.039C176.156 37.977 175.302 38.782 174.168 39.454C173.034 40.126 171.606 40.462 169.884 40.462C166.902 40.462 164.473 39.503 162.597 37.585C160.721 35.653 159.783 33.042 159.783 29.752ZM162.744 28.996V27.673H176.52L177.57 28.093V28.996H162.744Z" fill="black"/>
</svg>
